<?xml version="1.0" encoding="utf-8"?>
<!-- Svg Vector Icons : http://www.onlinewebfonts.com/icon -->
<!DOCTYPE svg PUBLIC "-//W3C//DTD SVG 1.1//EN" "http://www.w3.org/Graphics/SVG/1.1/DTD/svg11.dtd">
<svg version="1.1" xmlns="http://www.w3.org/2000/svg" xmlns:xlink="http://www.w3.org/1999/xlink" x="0px" y="0px" viewBox="0 0 1000 1000" enable-background="new 0 0 1000 1000" xml:space="preserve">
<metadata> Svg Vector Icons : http://www.onlinewebfonts.com/icon </metadata>
<g><path d="M665.1,281.6c3.2-6.3,3.2-19,0-28.5c-6.3-12.7-22.2-15.8-44.3-15.8h-3.2H247.4h-15.8c-31.6,0-47.5,15.8-47.5,31.6c0,9.5,6.3,19,15.8,25.3c9.5,3.2,19,9.5,31.6,9.5h389.3C643,303.8,658.8,294.3,665.1,281.6L665.1,281.6L665.1,281.6z M184.1,401.9c0,9.5,6.3,22.2,15.8,25.3c9.5,3.2,19,6.3,31.6,6.3h300.7l6.3-6.3c9.5-9.5,19-19,28.5-28.5l38-31.6H231.5C199.9,370.2,184.1,386.1,184.1,401.9L184.1,401.9L184.1,401.9z M832.8,373.4c9.5,3.2,19,9.5,28.5,15.8l28.5,15.8V110.7c0-53.8-47.5-69.6-79.1-69.6l0,0H101.8l0,0c-31.6,0-91.8,19-91.8,69.6v778.5c0,50.6,60.1,69.6,91.8,69.6l0,0h708.9c57,0,79.1-41.1,79.1-69.6v-69.6l-41.1-34.8l-28.5,12.7v91.8c0,0,0,3.2-3.2,6.3c-3.2,3.2-3.2,0-9.5,0H101.8c-3.2,0-22.2,6.3-22.2-6.3V110.7c0-3.2,9.5-3.2,22.2-3.2h708.9c3.2,0,12.7-6.3,12.7,3.2v259.5L832.8,373.4L832.8,373.4L832.8,373.4z M987.9,775.3L867.7,661.4c19-28.5,28.5-60.1,28.5-94.9c0-101.3-85.4-180.4-193.1-180.4S510,468.4,510,566.5c0,101.3,85.4,180.4,193.1,180.4c47.5,0,88.6-15.8,120.3-41.1l117.1,110.8c6.3,6.3,15.8,6.3,22.2,0l22.2-22.2C991.1,791.2,991.1,781.7,987.9,775.3L987.9,775.3L987.9,775.3L987.9,775.3z M563.8,569.6c0-72.8,63.3-132.9,139.3-132.9s139.3,60.1,139.3,132.9c0,72.8-63.3,132.9-139.3,132.9C624,699.4,563.8,642.4,563.8,569.6L563.8,569.6L563.8,569.6L563.8,569.6z"/></g>
</svg>